<svg width="20" height="20" viewBox="0 0 20 20" fill="none" xmlns="http://www.w3.org/2000/svg">
<path id="Vector" d="M13.9691 13.1431L15.0802 12.0122C15.2538 11.8355 15.5559 11.9592 15.5559 12.2136V17.3525C15.5559 18.2891 14.8093 19.049 13.8892 19.049H1.6667C0.746544 19.049 0 18.2891 0 17.3525V4.91175C0 3.97516 0.746544 3.21529 1.6667 3.21529H11.1634C11.41 3.21529 11.535 3.51924 11.3614 3.69949L10.2502 4.83047C10.1981 4.88348 10.1287 4.91175 10.0523 4.91175H1.6667V17.3525H13.8892V13.3411C13.8892 13.2668 13.917 13.1962 13.9691 13.1431ZM19.4067 6.01092L10.2884 15.292L7.14946 15.6454C6.23972 15.7479 5.4654 14.9668 5.56609 14.0338L5.91332 10.8388L15.0316 1.5577C15.8267 0.748345 17.1115 0.748345 17.9032 1.5577L19.4032 3.08452C20.1984 3.89387 20.1984 5.2051 19.4067 6.01092ZM15.976 7.10302L13.9586 5.04959L7.50711 11.6199L7.25363 13.9278L9.52104 13.6698L15.976 7.10302ZM18.2261 4.28618L16.7261 2.75936C16.5837 2.61446 16.351 2.61446 16.2122 2.75936L15.1392 3.85146L17.1566 5.90489L18.2296 4.81279C18.3685 4.66435 18.3685 4.43109 18.2261 4.28618Z" fill="#697077"/>
</svg>
