<svg width="20" height="20" viewBox="0 0 20 20" fill="none" xmlns="http://www.w3.org/2000/svg">
<path id="icon" fill-rule="evenodd" clip-rule="evenodd" d="M9.99967 19.1668C4.93706 19.1668 0.833008 15.0628 0.833008 10.0002C0.833008 4.93755 4.93706 0.833496 9.99967 0.833496C15.0623 0.833496 19.1663 4.93755 19.1663 10.0002C19.1663 15.0628 15.0623 19.1668 9.99967 19.1668ZM16.1659 14.2707C17.0069 13.0588 17.4997 11.587 17.4997 10.0002C17.4997 5.85803 14.1418 2.50016 9.99967 2.50016C5.85754 2.50016 2.49967 5.85803 2.49967 10.0002C2.49967 11.587 2.99249 13.0588 3.83343 14.2707C4.7713 13.0319 6.97518 12.5002 9.99967 12.5002C13.0242 12.5002 15.228 13.0319 16.1659 14.2707ZM14.9702 15.6166C14.7263 14.7396 12.9742 14.1668 9.99967 14.1668C7.02519 14.1668 5.27301 14.7396 5.02911 15.6166C6.35242 16.7886 8.09296 17.5002 9.99967 17.5002C11.9064 17.5002 13.6469 16.7886 14.9702 15.6166ZM9.99967 5.00016C7.98226 5.00016 6.66634 6.4633 6.66634 8.3335C6.66634 11.1896 8.13373 12.5002 9.99967 12.5002C11.8481 12.5002 13.333 11.2332 13.333 8.50016C13.333 6.60148 12.0115 5.00016 9.99967 5.00016ZM8.33301 8.3335C8.33301 10.2245 9.01485 10.8335 9.99967 10.8335C10.9811 10.8335 11.6663 10.2488 11.6663 8.50016C11.6663 7.45884 11.0127 6.66683 9.99967 6.66683C8.94446 6.66683 8.33301 7.34668 8.33301 8.3335Z" fill="#697077"/>
</svg>
