<svg width="161" height="48" viewBox="0 0 161 48" fill="none" xmlns="http://www.w3.org/2000/svg">
<path d="M152.791 16.5201C153.005 15.9601 153.298 15.4134 153.671 14.8801C154.045 14.3468 154.484 13.8801 154.991 13.4801C155.524 13.0534 156.125 12.7201 156.791 12.4801C157.458 12.2401 158.218 12.1201 159.071 12.1201H160.631V18.9201H159.591C158.738 18.9201 157.938 19.0934 157.191 19.4401C156.444 19.7601 155.765 20.2268 155.151 20.8401C154.565 21.4534 154.058 22.1868 153.631 23.0401C153.231 23.8668 152.951 24.7868 152.791 25.8001V37.3601H144.951V12.1201H152.791V16.5201Z" fill="#45E1E9"/>
<path d="M124.305 27.6796C124.305 28.3996 124.438 29.0396 124.705 29.5996C124.972 30.1329 125.332 30.5862 125.785 30.9596C126.265 31.3062 126.798 31.5729 127.385 31.7596C127.998 31.9462 128.638 32.0396 129.305 32.0396C130.745 32.0396 131.865 31.8796 132.665 31.5596C133.492 31.2129 133.905 30.7196 133.905 30.0796V29.3196H141.745V30.4796C141.745 31.5462 141.425 32.5329 140.785 33.4396C140.172 34.3462 139.305 35.1329 138.185 35.7996C137.092 36.4662 135.785 36.9862 134.265 37.3596C132.745 37.7329 131.092 37.9196 129.305 37.9196C127.465 37.9196 125.758 37.6529 124.185 37.1196C122.638 36.6129 121.292 35.8796 120.145 34.9196C118.998 33.9862 118.092 32.8796 117.425 31.5996C116.785 30.2929 116.465 28.8529 116.465 27.2796V22.4796C116.465 20.8262 116.785 19.3329 117.425 17.9996C118.092 16.6396 118.998 15.4929 120.145 14.5596C121.292 13.5996 122.638 12.8662 124.185 12.3596C125.758 11.8262 127.465 11.5596 129.305 11.5596C131.145 11.5596 132.838 11.8262 134.385 12.3596C135.958 12.8662 137.318 13.5996 138.465 14.5596C139.612 15.4929 140.505 16.6396 141.145 17.9996C141.812 19.3329 142.145 20.8262 142.145 22.4796V27.5196H124.305V27.6796ZM129.705 13.4396C129.652 14.5596 129.345 15.5062 128.785 16.2796C128.252 17.0529 127.572 17.6796 126.745 18.1596C125.945 18.6396 125.052 18.9996 124.065 19.2396C123.105 19.4529 122.145 19.5729 121.185 19.5996C122.172 19.6262 123.158 19.7729 124.145 20.0396C125.158 20.3062 126.078 20.7062 126.905 21.2396C127.732 21.7729 128.398 22.4396 128.905 23.2396C129.438 24.0396 129.705 24.9996 129.705 26.1196C129.705 24.9996 129.945 24.0396 130.425 23.2396C130.905 22.4396 131.532 21.7729 132.305 21.2396C133.105 20.6796 133.985 20.2662 134.945 19.9996C135.932 19.7329 136.905 19.5862 137.865 19.5596C136.932 19.5329 135.985 19.4129 135.025 19.1996C134.092 18.9596 133.238 18.5996 132.465 18.1196C131.692 17.6396 131.052 17.0262 130.545 16.2796C130.038 15.5062 129.758 14.5596 129.705 13.4396Z" fill="#45E1E9"/>
<path d="M88.7793 47.1201V12.1201H102.579C104.526 12.1201 106.233 12.4535 107.699 13.1201C109.193 13.7868 110.433 14.7068 111.419 15.8801C112.433 17.0268 113.193 18.3868 113.699 19.9601C114.206 21.5068 114.459 23.1735 114.459 24.9601C114.459 26.7201 114.179 28.3601 113.619 29.8801C113.086 31.4001 112.313 32.7068 111.299 33.8001C110.286 34.9201 109.033 35.7868 107.539 36.4001C106.073 37.0401 104.419 37.3601 102.579 37.3601H96.6193V47.1201H88.7793ZM101.859 13.4001C101.779 17.1334 100.953 19.9335 99.3793 21.8001C97.806 23.6668 95.2993 24.6401 91.8593 24.7201C95.2993 24.8268 97.806 25.8668 99.3793 27.8401C100.953 29.7868 101.779 32.5468 101.859 36.1201C101.913 32.5468 102.726 29.7735 104.299 27.8001C105.873 25.8268 108.393 24.7868 111.859 24.6801C108.393 24.6001 105.873 23.6401 104.299 21.8001C102.726 19.9335 101.913 17.1334 101.859 13.4001Z" fill="#45E1E9"/>
<path d="M75.8594 3.51953H83.6994V29.7595C83.6994 30.4529 83.8727 30.9195 84.2194 31.1595C84.566 31.3729 85.0194 31.4795 85.5794 31.4795H87.1794V37.8795H85.0994C83.4727 37.8795 82.0727 37.6795 80.8994 37.2795C79.7527 36.8795 78.806 36.3195 78.0594 35.5995C77.3127 34.8795 76.7527 34.0129 76.3794 32.9995C76.0327 31.9862 75.8594 30.8529 75.8594 29.5995V3.51953Z" fill="#45E1E9"/>
<path d="M68.3239 9.47961C67.6839 9.47961 67.0972 9.37294 66.5639 9.15961C66.0306 8.91961 65.5772 8.59961 65.2039 8.19961C64.8306 7.79961 64.5372 7.33294 64.3239 6.79961C64.1106 6.26627 64.0039 5.69295 64.0039 5.07961C64.0039 4.46628 64.1106 3.89295 64.3239 3.35961C64.5372 2.79961 64.8306 2.31961 65.2039 1.91961C65.5772 1.51961 66.0306 1.19961 66.5639 0.95961C67.0972 0.71961 67.6839 0.599609 68.3239 0.599609C69.6039 0.599609 70.6439 1.03961 71.4439 1.91961C72.2439 2.77294 72.6439 3.82628 72.6439 5.07961C72.6439 5.69295 72.5372 6.26627 72.3239 6.79961C72.1106 7.33294 71.8039 7.79961 71.4039 8.19961C71.0306 8.59961 70.5772 8.91961 70.0439 9.15961C69.5372 9.37294 68.9639 9.47961 68.3239 9.47961ZM64.4039 12.1196H72.2439V37.3596H64.4039V12.1196Z" fill="#45E1E9"/>
<path d="M45.9533 37.8797C44.5933 37.8797 43.3133 37.7197 42.1133 37.3997C40.9133 37.0797 39.8733 36.6131 38.9933 35.9997C38.1133 35.3864 37.4066 34.6131 36.8733 33.6797C36.3666 32.7731 36.1133 31.7197 36.1133 30.5197C36.1133 29.2664 36.2999 28.1331 36.6733 27.1197C37.0733 26.1064 37.6999 25.2264 38.5533 24.4797C39.4333 23.7064 40.5666 23.0797 41.9533 22.5997C43.3666 22.0931 45.0999 21.7197 47.1533 21.4797L53.1533 20.7997V20.2397C53.1533 19.2264 52.7533 18.5197 51.9533 18.1197C51.1533 17.6931 50.0866 17.4797 48.7533 17.4797C47.4733 17.4797 46.4866 17.7064 45.7933 18.1597C45.0999 18.5864 44.7533 19.1464 44.7533 19.8397V20.2397H36.9133V19.4397C36.9133 18.3731 37.1933 17.3731 37.7533 16.4397C38.3133 15.4797 39.0999 14.6531 40.1133 13.9597C41.1533 13.2664 42.3933 12.7197 43.8333 12.3197C45.2999 11.9197 46.9399 11.7197 48.7533 11.7197C50.4866 11.7197 52.0999 11.9331 53.5933 12.3597C55.0866 12.7864 56.3799 13.3731 57.4733 14.1197C58.5666 14.8664 59.4199 15.7731 60.0333 16.8397C60.6733 17.8797 60.9933 19.0131 60.9933 20.2397V37.3597H53.5533V35.9197C52.8066 36.4531 51.7399 36.9064 50.3533 37.2797C48.9666 37.6797 47.4999 37.8797 45.9533 37.8797ZM48.3533 22.5597C48.2999 23.4931 48.0599 24.3864 47.6333 25.2397C47.2066 26.0664 46.6466 26.7997 45.9533 27.4397C45.2866 28.0531 44.5133 28.5597 43.6333 28.9597C42.7799 29.3331 41.8866 29.5331 40.9533 29.5597C41.9133 29.6131 42.8333 29.8397 43.7133 30.2397C44.6199 30.6397 45.4066 31.1597 46.0733 31.7997C46.7666 32.4397 47.3133 33.1731 47.7133 33.9997C48.1399 34.8531 48.3533 35.7331 48.3533 36.6397C48.3533 35.7331 48.5533 34.8531 48.9533 33.9997C49.3533 33.1731 49.8866 32.4397 50.5533 31.7997C51.2466 31.1331 52.0333 30.5997 52.9133 30.1997C53.8199 29.7997 54.7533 29.5731 55.7133 29.5197C54.7799 29.4931 53.8733 29.2931 52.9933 28.9197C52.1399 28.5197 51.3666 28.0131 50.6733 27.3997C50.0066 26.7597 49.4599 26.0264 49.0333 25.1997C48.6066 24.3731 48.3799 23.4931 48.3533 22.5597Z" fill="#45E1E9"/>
<path d="M23.28 3.51953H32.92V37.3595H25.44V23.3995C25.44 22.8929 25.4533 22.2929 25.48 21.5995C25.5333 20.9062 25.5867 20.1995 25.64 19.4795C25.6933 18.7329 25.7467 17.9862 25.8 17.2395C25.88 16.4929 25.9467 15.8129 26 15.1995L19.44 36.5595H13.48L6.92 15.1995C6.97333 15.8129 7.02667 16.4929 7.08 17.2395C7.16 17.9862 7.22667 18.7329 7.28 19.4795C7.33333 20.1995 7.37333 20.9062 7.4 21.5995C7.45333 22.2929 7.48 22.8929 7.48 23.3995V37.3595H0V3.51953H9.64L15.32 21.4795C15.56 22.4129 15.7733 23.3329 15.96 24.2395C16.1467 25.1195 16.3067 26.0129 16.44 26.9195C16.6 26.0129 16.76 25.1195 16.92 24.2395C17.1067 23.3329 17.3333 22.4129 17.6 21.4795L23.28 3.51953Z" fill="#45E1E9"/>
</svg>
